<svg width="365" height="150" viewBox="0 0 365 150" fill="none" xmlns="http://www.w3.org/2000/svg">
<path opacity="0.2" d="M59.7189 62.988C30.1852 62.1182 2.10059 102.967 -5.5 120V151H386.5L373 16.4999C343 23.9999 311 8.99988 301.852 8.62636C281.222 8.62636 250.458 51.3902 236.704 73.8594C225.412 93.8641 211.007 98.1405 205.216 97.7781C178.288 98.6479 157.803 53.9272 150.926 31.4582C144.846 6.23437 138 1.01611 134.639 1.01614C129 0.999878 120.524 8.40921 111.837 33.6326C103.151 58.856 89.3974 65.8867 83.6065 66.2491C75.5067 66.7561 65.8718 62.9878 59.7189 62.988Z" fill="url(#paint0_linear_1152_446)"/>
<path d="M59.7189 62.988L59.6895 63.9875C59.6993 63.9878 59.7091 63.988 59.719 63.988L59.7189 62.988ZM83.6065 66.2491L83.5441 65.2511L83.6065 66.2491ZM134.639 1.01614L134.636 2.01614H134.639L134.639 1.01614ZM150.926 31.4582L149.954 31.6925C149.959 31.7121 149.964 31.7316 149.97 31.7509L150.926 31.4582ZM205.216 97.7781L205.278 96.7801C205.247 96.7781 205.215 96.7776 205.184 96.7786L205.216 97.7781ZM236.704 73.8594L235.851 73.3373C235.845 73.3474 235.839 73.3575 235.833 73.3678L236.704 73.8594ZM301.852 8.62636L301.893 7.62719C301.879 7.62664 301.866 7.62636 301.852 7.62636V8.62636ZM-4.58679 120.407C-0.832967 111.995 8.02431 97.6202 19.6083 85.4704C31.2281 73.2832 45.3701 63.5658 59.6895 63.9875L59.7484 61.9884C44.534 61.5403 29.8669 71.8125 18.1608 84.0903C6.41888 96.4057 -2.56644 110.972 -6.41321 119.592L-4.58679 120.407ZM59.719 63.988C62.6616 63.9879 66.4664 64.8938 70.7274 65.7873C74.911 66.6646 79.4674 67.5101 83.669 67.2472L83.5441 65.2511C79.6458 65.4951 75.3348 64.7099 71.1378 63.8299C67.0182 62.966 62.9291 61.9879 59.7189 61.988L59.719 63.988ZM83.669 67.2472C90.0188 66.8498 104.024 59.3906 112.783 33.9582L110.892 33.307C102.277 58.3215 88.7761 64.9237 83.5441 65.2511L83.669 67.2472ZM112.783 33.9582C117.108 21.3989 121.355 13.3562 125.169 8.47524C129 3.57221 132.27 2.00931 134.636 2.01614L134.642 0.0161442C131.369 0.00670481 127.581 2.14035 123.593 7.24376C119.588 12.3693 115.253 20.643 110.892 33.307L112.783 33.9582ZM134.639 2.01614C135.804 2.01613 138.094 2.95938 140.924 7.32244C143.728 11.6453 146.926 19.1328 149.954 31.6925L151.898 31.2239C148.845 18.5598 145.581 10.8262 142.602 6.234C139.649 1.68198 136.835 0.0161198 134.639 0.01614L134.639 2.01614ZM149.97 31.7509C153.428 43.0504 160.305 59.9447 169.722 73.9288C174.431 80.9214 179.802 87.2275 185.735 91.7383C191.672 96.2524 198.221 99.0046 205.248 98.7776L205.184 96.7786C198.748 96.9865 192.638 94.4748 186.945 90.1463C181.248 85.8144 176.019 79.6991 171.381 72.8117C162.104 59.0356 155.301 42.3351 151.882 31.1655L149.97 31.7509ZM205.154 98.7762C211.408 99.1676 226.138 94.6127 237.575 74.3509L235.833 73.3678C224.686 93.1156 210.606 97.1135 205.278 96.7801L205.154 98.7762ZM237.557 74.3814C244.415 63.1778 255.51 46.9222 267.447 33.481C273.417 26.7589 279.572 20.7695 285.491 16.4683C291.436 12.1487 297.013 9.62636 301.852 9.62636V7.62636C296.376 7.62636 290.372 10.4495 284.316 14.8503C278.234 19.2695 271.971 25.3753 265.952 32.1529C253.911 45.7109 242.747 62.0718 235.851 73.3373L237.557 74.3814ZM301.811 9.62553C303.951 9.7129 307.528 10.6742 312.338 12.0313C317.085 13.3707 322.91 15.055 329.39 16.492C342.341 19.364 358.021 21.2755 373.243 17.47L372.757 15.5297C357.979 19.2243 342.659 17.3858 329.823 14.5394C323.41 13.1172 317.644 11.4502 312.881 10.1064C308.181 8.78032 304.327 7.72658 301.893 7.62719L301.811 9.62553Z" fill="#109CF1"/>
<circle cx="273" cy="26" r="4" fill="white" stroke="#109CF1" stroke-width="2"/>
<defs>
<linearGradient id="paint0_linear_1152_446" x1="190.5" y1="1.01611" x2="190" y2="151" gradientUnits="userSpaceOnUse">
<stop stop-color="#109CF1"/>
<stop offset="1" stop-color="#109CF1" stop-opacity="0"/>
</linearGradient>
</defs>
</svg>
